<?xml version="1.0" encoding="UTF-8" standalone="no"?><!DOCTYPE svg PUBLIC "-//W3C//DTD SVG 1.1//EN" "http://www.w3.org/Graphics/SVG/1.1/DTD/svg11.dtd"><svg width="100%" height="100%" viewBox="0 0 303 340" version="1.1" xmlns="http://www.w3.org/2000/svg" xmlns:xlink="http://www.w3.org/1999/xlink" xml:space="preserve" xmlns:serif="http://www.serif.com/" style="fill-rule:evenodd;clip-rule:evenodd;stroke-linejoin:round;stroke-miterlimit:1.41421;"><g id="oxfam-logo"><rect x="0.85" y="0" width="301.301" height="339.5" style="fill:#61a534;"/><g><path d="M168.02,130.451c10.063,-5.521 17.117,-15.846 18.013,-27.909c0,-0.477 -0.388,-0.866 -0.872,-0.866l-15.506,0c-0.48,0 -0.816,0.382 -0.872,0.866c-1.256,8.519 -8.596,15.057 -17.466,15.057c-8.866,0 -16.207,-6.538 -17.469,-15.057c-0.044,-0.505 -0.387,-0.866 -0.872,-0.866l-15.503,0c-0.478,0 -0.869,0.389 -0.869,0.866c0.892,12.063 7.95,22.388 18.01,27.909c-10.549,5.782 -17.784,16.856 -18.097,29.66c0,0.481 0.389,0.87 0.87,0.87l15.417,0c0.481,0 0.873,-0.389 0.873,-0.87c0.455,-9.35 8.179,-16.791 17.64,-16.791c9.468,0 17.193,7.441 17.643,16.791c0,0.481 0.392,0.87 0.87,0.87l15.421,0c0.48,0 0.869,-0.389 0.869,-0.87c-0.315,-12.804 -7.548,-23.878 -18.1,-29.66Zm-50.521,-32.259l15.507,0c0.479,0 0.819,-0.381 0.868,-0.871c1.261,-8.515 8.603,-15.05 17.47,-15.05c8.867,0 16.21,6.535 17.471,15.05c0.055,0.48 0.442,0.871 0.919,0.871l15.45,0c0.485,0 0.872,-0.387 0.872,-0.868c-1.33,-18.008 -16.363,-32.2 -34.712,-32.2c-18.349,0 -33.378,14.192 -34.713,32.2c0,0.481 0.388,0.868 0.868,0.868Zm118.826,19.053c0,46.934 -38.047,84.981 -84.981,84.981c-46.931,0 -84.978,-38.047 -84.978,-84.981c0,-46.93 38.047,-84.977 84.978,-84.977c46.934,0 84.981,38.047 84.981,84.977Z" style="fill:#fff;fill-rule:nonzero;"/><path d="M50.349,238.786c-14.855,0.04 -21.753,10.46 -21.753,19.301l0,29.916c0,8.851 6.898,19.266 21.753,19.307c14.853,-0.041 21.753,-10.456 21.753,-19.307l0,-29.916c0,-8.841 -6.9,-19.261 -21.753,-19.301Zm8.313,48.187c0,5.113 -5.24,6.843 -8.313,6.843c-3.073,0 -8.318,-1.73 -8.318,-6.843l0,-27.85c0,-5.114 5.245,-6.844 8.318,-6.844c3.073,0 8.313,1.73 8.313,6.844l0,27.85Z" style="fill:#fff;fill-rule:nonzero;"/><path d="M145.681,306.089l0,-26.048l20.071,0l0,-13.352l-19.977,0l0,-13.257l23.258,0l0,-13.435l-36.758,0l0,66.092l13.406,0Z" style="fill:#fff;fill-rule:nonzero;"/><path d="M203.53,306.089l13.397,0l-17.521,-66.092l-15.672,0l-17.244,66.092l13.463,0l3.073,-11.707l17.491,0l3.013,11.707Zm-11.737,-45.465l5.369,20.796l-10.838,0l5.469,-20.796Z" style="fill:#fff;fill-rule:nonzero;"/><path d="M108.306,272.998l17.11,-33.001l-15.524,0l-9.361,19.244l-9.361,-19.244l-15.524,0l17.11,33.001l-17.205,33.091l15.704,0l9.276,-19.199l9.276,19.199l15.703,0l-17.204,-33.091Z" style="fill:#fff;fill-rule:nonzero;"/><path d="M260.144,239.997l-11.828,25.427l-11.989,-25.427l-13.762,0l0,66.094l13.134,0l0,-37.598l8.439,17.578l8.383,0l8.439,-17.522l0,37.542l13.137,0l0,-66.094l-13.953,0Z" style="fill:#fff;fill-rule:nonzero;"/></g></g></svg>