<?xml version="1.0" encoding="UTF-8" standalone="no"?><!DOCTYPE svg PUBLIC "-//W3C//DTD SVG 1.1//EN" "http://www.w3.org/Graphics/SVG/1.1/DTD/svg11.dtd"><svg width="100%" height="100%" viewBox="0 0 273 405" version="1.1" xmlns="http://www.w3.org/2000/svg" xmlns:xlink="http://www.w3.org/1999/xlink" xml:space="preserve" xmlns:serif="http://www.serif.com/" style="fill-rule:evenodd;clip-rule:evenodd;stroke-linejoin:round;stroke-miterlimit:1.41421;"><path id="background" d="M66.08,43.781c5.304,-1.997 18.346,-4.953 36.474,1.263c20.2,-1.554 26.415,-4.662 44.543,-7.77c18.129,-3.107 47.134,-2.589 68.888,12.431c21.753,15.021 42.471,15.539 46.615,59.564c4.144,44.026 -3.626,59.564 -8.287,69.405c-4.662,9.841 -60.082,24.344 -69.923,27.97c-9.841,3.625 -49.205,11.912 -59.046,9.323c-9.841,-2.59 -73.031,-13.467 -81.836,-20.2c-8.805,-6.734 -34.703,-62.154 -32.631,-71.477c2.072,-9.323 15.02,-52.831 24.861,-61.118c9.841,-8.287 21.318,-15.991 30.342,-19.391Z" style="fill:#fff;fill-rule:nonzero;"/><path id="foreground" d="M126.119,2.888c-5.776,0.132 -11.862,2.045 -16.246,5.824c-7.793,6.717 -15.575,13.697 -15.306,22.835c0.269,9.138 5.364,14.254 5.364,14.254c0,0 3.494,2.677 0,5.364c-3.493,2.688 -44.871,29.031 -42.721,83.316c0,0 1.076,14.127 -0.537,29.177c-1.158,10.812 2.641,23.92 4.885,30.48c0.056,0.063 1.101,2.76 -1.265,1.187c-11.216,-7.01 -20.375,-17.546 -28.047,-30.632c-7.038,-12.785 -11.054,-27.559 -11.054,-43.277c0,-33.386 18.128,-62.465 44.829,-77.434c-36.634,10.101 -63.641,44.41 -63.641,85.154c0,3.115 0.153,6.202 0.46,9.234c0.299,7.025 1.074,18.236 3.046,22.721c2.956,6.719 2.682,21.221 2.682,23.64c0,2.418 0.807,81.956 47.837,81.688c0,0 22.414,0.557 22.567,-8.582c0.134,-8.063 -2.166,-8.91 -4.292,-13.583c-2.015,-4.433 -3.489,-4.704 -2.414,-18.946c0,0 0.055,-2.883 1.13,-2.951c1.076,-0.068 14.182,38.964 31.113,59.389c16.929,20.424 33.863,22.567 46.762,22.567c0,0 24.178,0.005 24.178,-12.088c0,-12.094 -11.017,-7.262 -11.017,-45.69c0,-38.43 18.54,-36.533 20.691,-27.128c2.151,9.406 4.032,16.924 0.268,42.186c-3.762,25.261 6.457,28.219 15.863,28.219c9.406,0 58.856,1.6 67.455,-139.754c0,0 1.068,-22.836 -6.456,-42.453c0,0 3.227,37.623 -20.153,57.779c-23.381,20.155 -36.821,17.203 -36.821,17.203c0,0 -11.276,-0.816 -15.843,4.827c-4.569,5.644 -3.775,9.681 -13.447,6.725c-9.676,-2.956 -9.716,-5.367 -18.583,-4.291c-8.868,1.075 -14.208,2.14 -17.702,-5.116c-3.495,-7.255 -7.4,-11.932 -14.655,-13.276c-7.256,-1.343 -39.138,-16.511 -38.277,-59.274c0.806,-39.773 18.813,-53.487 18.813,-53.487c0,0 2.964,-3.221 5.919,-1.877c2.956,1.343 7.786,1.619 13.429,-3.487c5.644,-5.106 9.406,-9.15 19.618,-12.644c0,0 6.994,-1.079 6.724,-8.066c-0.269,-6.987 -5.924,-22.29 -13.182,-26.859c-3.175,-2 -7.482,-2.979 -11.974,-2.874Zm24.388,192.34c1.622,-0.06 3.964,1.014 6.437,1.955c3.596,1.366 11.821,0.721 15.04,0.497c3.216,-0.223 5.373,1.143 2.796,4.195c-3.551,4.21 -7.8,4.055 -13.161,4.426c-5.362,0.371 -11.112,-4.886 -11.112,-4.886c-0.305,-0.518 -2.915,-3.299 -1.706,-5.268c0.379,-0.614 0.968,-0.891 1.706,-0.919Zm-27.458,-85.742c6.211,-7.62 9.674,-8.6 15.049,-8.6c5.375,0 12.832,3.446 15.049,11.824c2.418,9.137 3.647,10.538 -5.064,20.735c-6.249,7.317 -17.51,23.338 -28.797,13.126c-11.286,-10.212 -7.095,-23.765 3.763,-37.085Zm100.942,14.228c-3.64,-9.132 -6.65,-11.106 -11.777,-12.718c-5.127,-1.613 -13.273,-0.561 -17.902,6.766c-5.048,7.989 -6.796,8.745 -1.546,21.086c3.767,8.854 9.859,27.728 23.689,21.373c13.83,-6.356 13.898,-20.542 7.536,-36.507Zm-59.536,59.974c2.875,-4.502 9.578,-6.031 13.463,-6.151c5.085,-0.156 5.012,-4.542 5.012,-4.542c0,0 0.36,-4.478 -18.002,-6.262c-18.34,-1.784 -18.842,2.949 -18.842,2.949c0,0 -0.866,4.3 4.106,5.374c3.787,0.819 10.062,3.587 12.102,8.498c0.401,1.192 1.535,1.216 2.161,0.134Zm86.608,-110.233c-3.086,1.008 -7.923,0.739 -12.967,-4.961c-5.044,-5.699 -8.337,-10.123 -18.099,-14.726c0,0 -6.825,-1.842 -5.784,-8.757c1.041,-6.914 8.346,-21.512 16.064,-25.25c7.717,-3.736 20.716,-1.476 27.717,6.065c7.001,7.54 13.972,15.347 12.692,24.398c-1.278,9.051 -6.919,13.56 -6.919,13.56l0.099,0.016c-2.686,3.494 -12.803,9.655 -12.803,9.655Z" style="fill-rule:nonzero;"/><path id="cw" d="M55.86,273.757c-3.209,0.001 -6.227,1.253 -8.495,3.523c-2.267,2.269 -3.516,5.288 -3.514,8.498c0.001,3.217 1.252,6.236 3.523,8.504c2.27,2.267 5.288,3.516 8.497,3.515c6.626,-0.003 12.012,-5.396 12.009,-12.02l0,-0.009c-0.001,-3.21 -1.252,-6.226 -3.523,-8.495c-2.27,-2.268 -5.288,-3.518 -8.497,-3.516Zm-5.558,17.593c-1.487,-1.488 -2.307,-3.463 -2.308,-5.566c-0.001,-2.112 0.816,-4.088 2.303,-5.576c1.485,-1.488 3.462,-2.307 5.565,-2.308c2.103,-0.001 4.079,0.816 5.568,2.303c1.487,1.486 2.307,3.463 2.308,5.565l0,0.01c0.002,4.339 -3.527,7.873 -7.868,7.876c-2.104,0 -4.08,-0.818 -5.568,-2.304Zm8.213,-4.382l2.061,0.654c-0.316,1.149 -0.842,2.003 -1.576,2.562c-0.736,0.558 -1.668,0.837 -2.798,0.837c-1.399,0 -2.549,-0.478 -3.449,-1.434c-0.9,-0.957 -1.351,-2.264 -1.351,-3.919c0,-1.753 0.453,-3.114 1.358,-4.083c0.906,-0.97 2.096,-1.454 3.571,-1.454c1.289,0 2.335,0.38 3.14,1.143c0.478,0.45 0.838,1.098 1.077,1.94l-2.105,0.502c-0.124,-0.545 -0.384,-0.976 -0.779,-1.294c-0.394,-0.316 -0.875,-0.474 -1.441,-0.474c-0.78,0 -1.414,0.281 -1.9,0.841c-0.485,0.561 -0.729,1.468 -0.729,2.723c0,1.331 0.24,2.28 0.718,2.844c0.479,0.566 1.101,0.848 1.868,0.848c0.564,0 1.051,-0.181 1.458,-0.54c0.407,-0.36 0.7,-0.925 0.877,-1.696Z" style="fill:#6d6d6d;fill-rule:nonzero;"/><path id="Rmark" d="M253.869,299.735c-3.209,0.001 -6.225,1.252 -8.494,3.522c-2.269,2.269 -3.518,5.288 -3.516,8.497c0.002,6.635 5.396,12.022 12.021,12.019c3.209,0 6.226,-1.253 8.494,-3.523c2.267,-2.269 3.517,-5.287 3.515,-8.497l0,-0.009c-0.001,-3.211 -1.252,-6.227 -3.523,-8.495c-2.27,-2.268 -5.287,-3.516 -8.497,-3.514Zm-5.557,17.594c-1.488,-1.487 -2.309,-3.463 -2.309,-5.566c-0.002,-4.349 3.526,-7.882 7.867,-7.884c2.103,-0.002 4.08,0.817 5.567,2.303c1.488,1.485 2.307,3.462 2.308,5.565l0,0.009c0.001,2.103 -0.816,4.079 -2.302,5.567c-1.487,1.489 -3.463,2.308 -5.565,2.308c-2.103,0 -4.079,-0.816 -5.566,-2.302Zm1.443,-0.308l0,-10.532l4.475,0c1.125,0 1.943,0.095 2.453,0.283c0.509,0.19 0.919,0.526 1.225,1.01c0.308,0.485 0.46,1.037 0.46,1.661c0,0.79 -0.234,1.443 -0.697,1.958c-0.464,0.515 -1.159,0.841 -2.084,0.974c0.46,0.268 0.84,0.562 1.139,0.883c0.3,0.321 0.704,0.891 1.211,1.708l1.286,2.055l-2.543,0l-1.537,-2.292c-0.546,-0.819 -0.92,-1.335 -1.121,-1.548c-0.2,-0.214 -0.415,-0.36 -0.639,-0.439c-0.225,-0.078 -0.583,-0.117 -1.07,-0.117l-0.431,0l0,4.396l-2.127,0Zm2.123,-6.077l1.575,0c1.019,0 1.657,-0.045 1.912,-0.13c0.253,-0.087 0.453,-0.235 0.596,-0.446c0.145,-0.211 0.215,-0.474 0.215,-0.79c0,-0.355 -0.094,-0.642 -0.282,-0.859c-0.191,-0.218 -0.456,-0.355 -0.801,-0.411c-0.173,-0.024 -0.69,-0.037 -1.552,-0.037l-1.659,0l0,2.673l-0.004,0Z" style="fill:#6d6d6d;fill-rule:nonzero;"/><path id="WWF" d="M11.045,331.119l13.682,0c0,0 3.545,-0.642 4.941,2.954c1.644,4.239 8.415,31.405 8.415,31.405l9.699,-14.353c0,0 -3.956,-20.1 2.979,-20.006c8.361,0.112 13.017,0 13.017,0c0,0 3.332,-0.319 5.416,5.236c2.454,6.54 8.427,29.565 8.427,29.565l13.805,-31.465c0,0 1.9,-3.335 4.941,-3.335c3.23,0 5.275,2.265 4.56,4.856c-1.087,3.947 -23.942,64.038 -23.942,64.038c0,0 -1.521,3.609 -4.751,3.609c-3.231,0 -4.561,-1.9 -6.271,-6.271c-1.71,-4.37 -12.542,-33.634 -12.542,-33.634l-16.342,37.055c0,0 -1.235,2.849 -3.801,2.849c-3.04,0 -4.181,-1.329 -5.7,-4.18c-1.521,-2.85 -20.713,-57.768 -20.713,-57.768c0,0 -3.802,-10.555 4.18,-10.555Zm101.044,0l13.682,0c0,0 3.545,-0.642 4.942,2.954c1.644,4.239 8.415,31.405 8.415,31.405l9.697,-14.353c0,0 -3.955,-20.1 2.98,-20.006c8.359,0.112 13.016,0 13.016,0c0,0 3.332,-0.319 5.415,5.236c2.455,6.54 8.428,29.565 8.428,29.565l13.805,-31.465c0,0 1.9,-3.335 4.941,-3.335c3.231,0 5.276,2.265 4.56,4.856c-1.087,3.947 -23.943,64.038 -23.943,64.038c0,0 -1.519,3.609 -4.75,3.609c-3.231,0 -4.559,-1.9 -6.272,-6.271c-1.71,-4.37 -12.54,-33.634 -12.54,-33.634l-16.343,37.055c0,0 -1.234,2.849 -3.8,2.849c-3.041,0 -4.181,-1.329 -5.701,-4.18c-1.521,-2.85 -20.713,-57.768 -20.713,-57.768c0,0 -3.8,-10.555 4.181,-10.555Zm101.121,72.503c0,0 -4.702,0.398 -4.702,-6.993c0,-7.389 0,-61.003 0,-61.003c0,0 0,-4.568 6.717,-4.568c6.718,0 45.954,0 45.954,0c0,0 5.568,-0.269 5.568,5.107c0,5.376 -5.165,4.838 -5.165,4.838l-27.411,0c0,0 -3.225,0 -3.225,3.089c0,3.09 0,15.048 0,15.048l21.096,0c0,0 5.702,0 5.702,4.435c0,4.432 -4.762,4.703 -4.762,4.703l-22.17,0l0,29.333c0,0 0.327,6.012 -3.568,6.012c-2.689,-0.001 -14.034,-0.14 -14.034,-0.001Z" style="fill-rule:nonzero;"/></svg>